<svg xmlns="http://www.w3.org/2000/svg" xmlns:xlink="http://www.w3.org/1999/xlink" width="512" height="512" viewBox="0 0 512 512">
  <defs>
    <filter id="Path_13" x="119.149" y="214.868" width="275.93" height="171.205" filterUnits="userSpaceOnUse">
      <feOffset dy="3" input="SourceAlpha"/>
      <feGaussianBlur stdDeviation="5.5" result="blur"/>
      <feFlood flood-opacity="0.161"/>
      <feComposite operator="in" in2="blur"/>
      <feComposite in="SourceGraphic"/>
    </filter>
    <filter id="Path_15" x="104.149" y="152.353" width="305.93" height="201.205" filterUnits="userSpaceOnUse">
      <feOffset dy="3" input="SourceAlpha"/>
      <feGaussianBlur stdDeviation="10.5" result="blur-2"/>
      <feFlood flood-opacity="0.161"/>
      <feComposite operator="in" in2="blur-2"/>
      <feComposite in="SourceGraphic"/>
    </filter>
    <filter id="Path_16" x="104.145" y="104.837" width="305.931" height="201.205" filterUnits="userSpaceOnUse">
      <feOffset dy="3" input="SourceAlpha"/>
      <feGaussianBlur stdDeviation="10.5" result="blur-3"/>
      <feFlood flood-opacity="0.161"/>
      <feComposite operator="in" in2="blur-3"/>
      <feComposite in="SourceGraphic"/>
    </filter>
    <clipPath id="clip-Logo_512x512">
      <rect width="512" height="512"/>
    </clipPath>
  </defs>
  <g id="Logo_512x512" data-name="Logo 512x512" clip-path="url(#clip-Logo_512x512)">
    <g id="logo-sm" transform="translate(18.756 0.671)">
      <path id="Path_11" data-name="Path 11" d="M183.073,15.752a108.341,108.341,0,0,1,108.341,0L417.639,88.628a108.341,108.341,0,0,1,54.17,93.828V328.2a108.341,108.341,0,0,1-54.167,93.822L291.414,494.905a108.337,108.337,0,0,1-108.341,0L56.85,422.027A108.341,108.341,0,0,1,2.679,328.2V182.456A108.342,108.342,0,0,1,56.852,88.627Z" transform="translate(0)" fill="#ff4500" fill-rule="evenodd"/>
      <path id="Path_12" data-name="Path 12" d="M107.977,24.245a45.615,45.615,0,0,1,45.271-.352l94.977,53.322a11.4,11.4,0,0,1,0,19.888l-94.977,53.319a45.617,45.617,0,0,1-45.271-.352l-91.2-53.052a11.4,11.4,0,0,1,0-19.71Z" transform="translate(105.774 210.939)" fill="#fcfcfc" fill-rule="evenodd"/>
      <g id="Group_26" data-name="Group 26" transform="translate(116.893 227.697)" opacity="0.9">
        <g transform="matrix(1, 0, 0, 1, -135.65, -228.37)" filter="url(#Path_13)">
          <path id="Path_13-2" data-name="Path 13" d="M107.976,24.148a45.617,45.617,0,0,1,45.271-.352l94.977,53.319a11.4,11.4,0,0,1,0,19.888l-94.977,53.322a45.617,45.617,0,0,1-45.271-.352L16.78,96.922a11.4,11.4,0,0,1,0-19.71Z" transform="translate(124.53 210.41)" fill="#fcfcfc" fill-rule="evenodd"/>
        </g>
      </g>
      <path id="Path_14" data-name="Path 14" d="M107.976,20.754a45.617,45.617,0,0,1,45.271-.352l94.977,53.322a11.4,11.4,0,0,1,0,19.888l-94.977,53.319a45.617,45.617,0,0,1-45.271-.352L16.78,93.528a11.4,11.4,0,0,1,0-19.71Z" transform="translate(105.774 167.173)" fill="#fcfcfc" fill-rule="evenodd"/>
      <g id="Group_27" data-name="Group 27" transform="translate(116.893 180.181)">
        <g transform="matrix(1, 0, 0, 1, -135.65, -180.85)" filter="url(#Path_15)">
          <path id="Path_15-2" data-name="Path 15" d="M107.976,20.639a45.617,45.617,0,0,1,45.271-.352l94.977,53.319a11.4,11.4,0,0,1,0,19.888l-94.977,53.322a45.617,45.617,0,0,1-45.271-.352L16.78,93.413a11.4,11.4,0,0,1,0-19.71Z" transform="translate(124.53 166.4)" fill="#fcfcfc" fill-rule="evenodd"/>
        </g>
      </g>
      <g transform="matrix(1, 0, 0, 1, -18.76, -0.67)" filter="url(#Path_16)">
        <path id="Path_16-2" data-name="Path 16" d="M107.977,17.131a45.617,45.617,0,0,1,45.271-.352L248.225,70.1a11.4,11.4,0,0,1,0,19.888l-94.977,53.322a45.618,45.618,0,0,1-45.271-.352L16.782,89.9a11.4,11.4,0,0,1,0-19.71Z" transform="translate(124.53 122.4)" fill="#fcfcfc" fill-rule="evenodd"/>
      </g>
    </g>
  </g>
</svg>
